<svg id="Capa_1" enable-background="new 0 0 512 512" height="512" viewBox="0 0 512 512" width="512" xmlns="http://www.w3.org/2000/svg"><g><path d="m512 256c0 25.73-3.796 50.573-10.858 74-.163.542-2.875.744-3.042 1.284-1.156 3.744-2.396 7.451-3.717 11.12-.271.754 2.001 1.845 1.722 2.596-36.157 97.51-130.016 167-240.105 167-141.385 0-256-114.615-256-256 0-110.089 69.49-203.948 167-240.105.612-.227 1.226.86 1.841.637 3.437-1.244 6.908-2.305 10.411-3.404.914-.287 1.83-1.993 2.748-2.27 23.427-7.062 48.27-10.858 74-10.858s50.573 3.796 74 10.858c.974.293 1.945 3.156 2.913 3.461 3.154.992 6.281 1.827 9.381 2.936.904.324 1.806-1.694 2.706-1.361 69.79 25.88 125.226 81.316 151.105 151.106.345.929-2.333 2.045-1.999 2.979 1.082 3.026 2.109 6.079 3.079 9.157.319 1.013 3.649 1.846 3.957 2.864 7.062 23.427 10.858 48.27 10.858 74z" fill="#44bfd7"/><path d="m484.95 235.178c0 114.946-93.182 208.127-208.128 208.127s-208.127-93.181-208.127-208.127c0-114.945 93.182-208.127 208.128-208.127s208.127 93.181 208.127 208.127z" fill="#60c8dd"/><path d="m337.5 122c-4.142 0-7.5 3.358-7.5 7.5v37.5h-148v-37.5c0-4.142-3.358-7.5-7.5-7.5s-7.5 3.358-7.5 7.5v37.5h-151.105c-1.828 4.93-3.509 9.932-5.037 15h156.142v148h-156.142c1.528 5.068 3.208 10.07 5.037 15h151.105v151.105c4.93 1.829 9.932 3.509 15 5.037v-156.142h148v156.142c5.068-1.527 10.07-3.208 15-5.037v-366.605c0-4.142-3.358-7.5-7.5-7.5zm-155.5 208v-148h148v148z" fill="#7cd2e3"/><path d="m345 182h156.142c-1.528-5.068-3.208-10.07-5.037-15h-151.105v-151.105c-4.93-1.828-9.932-3.509-15-5.037v156.142h-148v-156.142c-5.068 1.528-10.07 3.208-15 5.037v141.765c0 5.159-4.182 9.34-9.34 9.34h-56.845c-4.107 0-7.688 3.164-7.811 7.269-.128 4.248 3.277 7.731 7.496 7.731h66.5v148h-66.186c-4.107 0-7.688 3.164-7.811 7.269-.127 4.248 3.278 7.731 7.497 7.731h66.5v44.186c0 4.107 3.164 7.688 7.269 7.811 4.247.128 7.731-3.278 7.731-7.497v-44.5h148v44.186c0 4.107 3.164 7.688 7.269 7.811 4.247.128 7.731-3.278 7.731-7.497v-44.5h151.105c1.828-4.93 3.509-9.932 5.037-15h-156.142zm-163 148v-148h148v148z" fill="#a6e0ec"/><path d="m189.717 118.933c-.528.881-.763 1.908-.673 2.931l2.541 28.601c.187 2.1-1 4.081-2.939 4.907l-26.416 11.254c-.945.403-1.739 1.095-2.267 1.976l-14.755 24.632c-1.083 1.808-3.208 2.713-5.262 2.242l-27.986-6.421c-1.001-.23-2.05-.137-2.995.266l-26.416 11.255c-1.939.826-4.19.31-5.575-1.279l-18.867-21.645c-.675-.774-1.578-1.315-2.58-1.545l-27.986-6.421c-2.054-.471-3.572-2.212-3.758-4.312l-2.541-28.601c-.091-1.023-.504-1.992-1.179-2.767l-18.865-21.646c-1.385-1.589-1.589-3.889-.506-5.697l14.755-24.632c.528-.881.763-1.907.673-2.931l-2.541-28.6c-.187-2.1 1-4.081 2.939-4.907l26.416-11.255c.945-.403 1.739-1.094 2.267-1.976l14.755-24.631c1.083-1.808 3.208-2.713 5.262-2.242l27.986 6.422c1.001.23 2.05.136 2.995-.266l26.416-11.255c1.939-.826 4.19-.31 5.575 1.279l18.867 21.645c.675.774 1.578 1.315 2.58 1.545l27.986 6.422c2.054.471 3.572 2.212 3.758 4.312l2.541 28.601c.091 1.023.504 1.992 1.179 2.766l18.867 21.645c1.385 1.589 1.589 3.889.506 5.697z" fill="#ea552d"/><path d="m189.717 118.933c-.528.881-.763 1.908-.673 2.931l2.541 28.601c.187 2.1-1 4.081-2.939 4.906l-26.416 11.255c-.945.403-1.739 1.094-2.267 1.976l-7.057 11.781c-65.654-29.654-103.908-101.947-88.23-174.986.181.02.362.051.542.092l27.986 6.422c1.001.23 2.05.136 2.995-.266l26.416-11.255c1.939-.826 4.19-.31 5.575 1.279l18.867 21.645c.675.774 1.578 1.315 2.58 1.545l27.986 6.421c2.054.472 3.572 2.212 3.758 4.312l2.541 28.601c.091 1.023.504 1.992 1.179 2.766l18.867 21.645c1.385 1.589 1.589 3.889.506 5.697z" fill="#f76937"/><path d="m113.261 167.949c0 4.188-3.395 7.583-7.583 7.583s-7.583-3.396-7.583-7.583 3.395-7.583 7.583-7.583c4.188-.001 7.583 3.395 7.583 7.583zm31.747-97.508c-1.064-20.498-17.985-36.878-38.521-37.292-19.974-.415-37.062 14.168-39.814 33.893-.252 1.807-.379 3.651-.379 5.483 0 4.142 3.358 7.5 7.5 7.5s7.5-3.358 7.5-7.5c0-1.142.079-2.29.236-3.411 1.703-12.203 12.296-21.214 24.656-20.969 12.712.256 23.186 10.391 23.844 23.072.351 6.767-2.017 13.191-6.668 18.091-4.654 4.901-10.934 7.602-17.683 7.602-4.142 0-7.5 3.357-7.5 7.5v33.341c0 4.143 3.358 7.5 7.5 7.5s7.5-3.357 7.5-7.5v-26.546c8.003-1.528 15.303-5.505 21.061-11.568 7.51-7.911 11.334-18.28 10.768-29.196z" fill="#f9f1d2"/><path d="m420 230h-40c-5.523 0-10-4.477-10-10l15.098-30.196c6.14-12.28 23.664-12.28 29.804 0l15.098 30.196c0 5.523-4.477 10-10 10z" fill="#ffd993"/><path d="m414.902 189.804 15.098 30.196c0 5.523-4.477 10-10 10h-26v-48.312c7.501-2.845 16.774-.14 20.902 8.116z" fill="#f5e8b4"/><path d="m418.106 480h-35.681c-6.862 0-12.426-5.563-12.426-12.426v-247.574h25.915c18.826 0 34.086 15.26 34.086 34.085v214.021c0 6.569-5.325 11.894-11.894 11.894z" fill="#f29500"/><path d="m412 440c-9.941 0-18-8.059-18-18v-202h36v202c0 9.941-8.059 18-18 18z" fill="#ffb52d"/><path d="m408 512h-16c-12.15 0-22-9.85-22-22v-7.532c0-6.886 5.582-12.468 12.468-12.468h35.266c6.774 0 12.266 5.492 12.266 12.266v7.734c0 12.15-9.85 22-22 22z" fill="#ea552d"/><path d="m430 482.5h-60v-15h60z" fill="#ffad8c"/><g fill="#232e7a"><path d="m415 190h-30l13.211-26.422c.737-1.474 2.841-1.474 3.578 0z"/><path d="m231.224 224.045c-4.142 0-7.5-3.357-7.5-7.5s3.358-7.5 7.5-7.5h17.276c4.143 0 7.5 3.357 7.5 7.5v80.825c0 4.143-3.357 7.5-7.5 7.5s-7.5-3.357-7.5-7.5v-73.325zm46.945 162.581h-44.464c-4.143 0-7.5 3.357-7.5 7.5s3.357 7.5 7.5 7.5h32.975l-30.906 70.307c-1.667 3.792.056 8.218 3.848 9.885.982.432 2.007.636 3.015.636 2.885 0 5.635-1.674 6.87-4.483l35.529-80.825c1.02-2.319.799-4.997-.586-7.118s-3.748-3.402-6.281-3.402zm-156.987-151.308c0-15.539-12.643-28.182-28.182-28.182-13.437 0-25.066 9.559-27.653 22.728-.799 4.064 1.849 8.007 5.913 8.806 4.064.796 8.007-1.849 8.806-5.913 1.209-6.154 6.648-10.62 12.935-10.62 7.269 0 13.182 5.913 13.182 13.182s-5.914 13.182-13.183 13.182c-4.143 0-7.5 3.357-7.5 7.5s3.357 7.5 7.5 7.5c7.269 0 13.182 5.913 13.182 13.182s-5.913 13.181-13.182 13.181c-6.541 0-12.152-4.873-13.054-11.329-.085-.611-.128-1.234-.128-1.853 0-4.143-3.357-7.5-7.5-7.5s-7.5 3.357-7.5 7.5c0 1.306.091 2.623.271 3.92 1.93 13.832 13.929 24.262 27.91 24.262 15.539 0 28.182-12.643 28.182-28.182 0-8.165-3.491-15.53-9.058-20.682 5.568-5.151 9.059-12.517 9.059-20.682zm328.161-124.385c0 17.022-13.85 30.872-30.873 30.872s-30.873-13.85-30.873-30.872c0-1.593.121-3.157.355-4.686 4.467-37.287 30.563-57.09 31.677-57.918 3.321-2.473 8.021-1.783 10.493 1.542 2.468 3.316 1.785 8.004-1.522 10.479-.224.171-9.348 7.229-16.782 20.431 2.143-.472 4.369-.722 6.652-.722 17.023.001 30.873 13.85 30.873 30.874zm-15 0c0-8.752-7.121-15.873-15.873-15.873-7.862 0-14.408 5.747-15.658 13.26-.003.025-.215 1.931-.215 2.613 0 8.752 7.121 15.872 15.873 15.872s15.873-7.12 15.873-15.872z"/></g></g></svg>